<svg xmlns="http://www.w3.org/2000/svg" version="1.1" xmlns:xlink="http://www.w3.org/1999/xlink" xmlns:svgjs="http://svgjs.dev/svgjs" width="2000" height="1500" viewBox="0 0 2000 1500"><rect width="2000" height="1500" fill="#fe2205"></rect><g transform="matrix(0.41511000415110005,0,0,0.41511000415110005,584.038130070827,250.40485829959516)"><svg viewBox="0 0 205 247" data-background-color="#fe2205" preserveAspectRatio="xMidYMid meet" height="2409" width="2000" xmlns="http://www.w3.org/2000/svg" xmlns:xlink="http://www.w3.org/1999/xlink"><g id="tight-bounds" transform="matrix(1,0,0,1,0.2103448275862263,-0.09999999999999432)"><svg viewBox="0 0 204.57931034482755 247.2" height="247.2" width="204.57931034482755"><g><svg viewBox="0 0 204.57931034482755 247.2" height="247.2" width="204.57931034482755"><g><svg viewBox="0 0 204.57931034482755 247.2" height="247.2" width="204.57931034482755"><g id="textblocktransform"><svg viewBox="0 0 204.57931034482755 247.2" height="247.2" width="204.57931034482755" id="textblock"><g><svg viewBox="0 0 204.57931034482755 247.2" height="247.2" width="204.57931034482755"><g transform="matrix(1,0,0,1,0,0)"><svg width="204.57931034482755" viewBox="2.5 -33.95 28.8 34.800000000000004" height="247.2" data-palette-color="#fff9ef"><path d="M17.5 0.85L17.5 0.85Q12.95 0.85 9.58-0.88 6.2-2.6 4.35-5.88 2.5-9.15 2.5-13.8L2.5-13.8Q2.5-17.95 3.93-21.6 5.35-25.25 7.98-28.03 10.6-30.8 14.15-32.38 17.7-33.95 21.95-33.95L21.95-33.95Q24.45-33.95 26.7-33.4 28.95-32.85 31.3-31.55L31.3-31.55 30.1-23.9 28.75-23.9 27.5-28.75Q27-30.85 25.73-31.65 24.45-32.45 22.25-32.45L22.25-32.45Q18.4-32.45 15.48-30.08 12.55-27.7 10.93-23.48 9.3-19.25 9.3-13.7L9.3-13.7Q9.3-7.65 11.78-4.13 14.25-0.6 18.8-0.6L18.8-0.6Q20.7-0.6 21.83-1.33 22.95-2.05 23.8-3.5L23.8-3.5 27-9.1 28.35-9.1 27.15-1.5Q25.15-0.5 22.95 0.18 20.75 0.85 17.5 0.85Z" opacity="1" transform="matrix(1,0,0,1,0,0)" fill="#fff9ef" class="wordmark-text-0" data-fill-palette-color="primary" id="text-0"></path></svg></g></svg></g></svg></g></svg></g><g></g></svg></g><defs></defs></svg><rect width="204.57931034482755" height="247.2" fill="none" stroke="none" visibility="hidden"></rect></g></svg></g></svg>